<svg width="5" height="10" viewBox="0 0 5 10" fill="none" xmlns="http://www.w3.org/2000/svg">
<path d="M0.620372 8.6746C0.440661 8.88427 0.464941 9.19992 0.674604 9.37963C0.884267 9.55934 1.19992 9.53506 1.37963 9.3254L0.620372 8.6746ZM4.42857 5L4.8082 5.3254C4.9687 5.13815 4.9687 4.86185 4.8082 4.6746L4.42857 5ZM1.37963 0.674603C1.19992 0.464941 0.884267 0.44066 0.674604 0.620371C0.464941 0.800082 0.44066 1.11573 0.620371 1.3254L1.37963 0.674603ZM1.37963 9.3254L4.8082 5.3254L4.04894 4.6746L0.620372 8.6746L1.37963 9.3254ZM4.8082 4.6746L1.37963 0.674603L0.620371 1.3254L4.04894 5.3254L4.8082 4.6746Z" fill="#1F1F1F"/>
</svg>
