<svg width="30" height="28" viewBox="0 0 30 28" fill="none" xmlns="http://www.w3.org/2000/svg">
<path d="M27.1779 0.388184H2.82226C1.26608 0.388184 0 1.65416 0 3.21044V19.6977C0 21.2539 1.26608 22.52 2.82226 22.52H12.0943L11.5955 26.0511H9.25628C8.82511 26.0511 8.47558 26.4007 8.47558 26.8318C8.47558 27.263 8.82511 27.6125 9.25628 27.6125H12.2737H17.7265H20.7439C21.1751 27.6125 21.5246 27.263 21.5246 26.8318C21.5246 26.4007 21.1751 26.0511 20.7439 26.0511H18.4046L17.9058 22.52H27.1779C28.734 22.52 30.0001 21.2539 30.0001 19.6977V3.21044C30 1.65416 28.734 0.388184 27.1779 0.388184ZM2.82226 1.9496H27.1779C27.873 1.9496 28.4387 2.51516 28.4387 3.21044V17.6408H1.56141V3.21044C1.56141 2.51516 2.12698 1.9496 2.82226 1.9496ZM16.8277 26.051H13.1724L13.6712 22.5199H16.329L16.8277 26.051ZM27.1779 20.9585H2.82226C2.12709 20.9585 1.56141 20.3929 1.56141 19.6976V19.2021H28.4386V19.6976C28.4386 20.3929 27.873 20.9585 27.1779 20.9585Z" fill="white"/>
</svg>
